<svg width="873" height="716" viewBox="0 0 873 716" fill="none" xmlns="http://www.w3.org/2000/svg">
<path d="M673.081 11.4657C708.701 -31.3038 776.581 62.6413 829.144 155.904C858.228 207.507 928.415 383.83 788.489 404.503C648.564 425.177 621.28 667.466 603.973 681.129C586.665 694.792 94.1412 745.586 176.668 690.325C259.194 635.065 -157.963 564.915 68.6098 328.536C68.6098 328.536 183.27 220.047 129.752 196.022C76.2338 171.997 187.946 79.6428 226.694 102.245C265.442 124.847 294.303 41.0305 336.361 44.7201C378.418 48.4096 410.089 -1.36669 430.5 38.2674C450.912 77.9015 637.461 54.2351 673.081 11.4657Z" fill="#FFF6DD" fill-opacity="0.55"/>
</svg>
